<?xml version="1.0" encoding="iso-8859-1"?>
<!-- Generator: Adobe Illustrator 25.2.1, SVG Export Plug-In . SVG Version: 6.00 Build 0)  -->
<svg version="1.1" xmlns="http://www.w3.org/2000/svg" xmlns:xlink="http://www.w3.org/1999/xlink" x="0px" y="0px"
	 width="399.507px" height="157.987px" viewBox="0 0 399.507 157.987" enable-background="new 0 0 399.507 157.987"
	 xml:space="preserve">
<g id="Artwork_Layer">
	<g>
		<g>
			<path fill="#FFFFFF" d="M24.59,13.205H0v106.25h57.831c11.065,0,20.035-8.97,20.035-20.035H24.59V13.205z"/>
			<path fill="#FFFFFF" d="M101.85,0c-8.804,0-14.724,5.769-14.724,13.205c0,7.438,5.92,13.205,14.724,13.205
				c8.803,0,14.722-5.767,14.722-13.66C116.572,5.465,110.652,0,101.85,0z"/>
			<path fill="#FFFFFF" d="M90.01,61.473v57.982h23.679V37.794l0,0C100.612,37.794,90.01,48.396,90.01,61.473z"/>
			<polygon fill="#FFFFFF" points="170.609,93.348 147.992,37.794 123.556,37.794 157.859,119.455 182.296,119.455 216.751,37.794 
				193.984,37.794 			"/>
			<path fill="#FFFFFF" d="M238.306,0c-8.803,0-14.722,5.769-14.722,13.205c0,7.438,5.92,13.205,14.722,13.205
				c8.804,0,14.724-5.767,14.724-13.66C253.03,5.465,247.11,0,238.306,0z"/>
			<path fill="#FFFFFF" d="M226.467,61.473v57.982h23.679V37.794h0C237.068,37.794,226.467,48.396,226.467,61.473z"/>
			<path fill="#FFFFFF" d="M320.423,36.581c-10.928,0-19.732,3.491-25.652,10.624v-9.411h-22.616v120.193
				c13.077,0,23.679-8.33,23.679-21.407v-25.776c6.072,6.679,14.419,9.865,24.589,9.865c22.919,0,40.679-16.392,40.679-42.043
				S343.342,36.581,320.423,36.581z M316.325,101.24c-11.839,0-20.794-8.499-20.794-22.615c0-14.117,8.955-22.616,20.794-22.616
				c11.839,0,20.794,8.499,20.794,22.616C337.119,92.741,328.164,101.24,316.325,101.24z"/>
		</g>
		<path fill="#C73372" d="M370.059,105.794c0-8.803,6.528-14.571,14.724-14.571c8.196,0,14.724,5.769,14.724,14.571
			c0,8.652-6.528,14.875-14.724,14.875C376.587,120.669,370.059,114.446,370.059,105.794z"/>
	</g>
</g>
<g id="Start_Content">
</g>
<g id="_xA9_Nacione_and_Lanatta._All_rights_reserved.">
</g>
</svg>
